<svg width="486" height="198" viewBox="0 0 486 198" fill="none" xmlns="http://www.w3.org/2000/svg">
<circle cx="3" cy="99" r="3" fill="#1C1C1C"/>
<circle cx="27" cy="75" r="3" fill="#1C1C1C"/>
<circle cx="27" cy="99" r="3" fill="#1C1C1C"/>
<circle cx="27" cy="123" r="3" fill="#1C1C1C"/>
<circle cx="51" cy="51" r="3" fill="#1C1C1C"/>
<circle cx="51" cy="75" r="3" fill="#1C1C1C"/>
<circle cx="51" cy="99" r="3" fill="#1C1C1C"/>
<circle cx="51" cy="123" r="3" fill="#1C1C1C"/>
<circle cx="51" cy="147" r="3" fill="#1C1C1C"/>
<circle cx="75" cy="27" r="3" fill="#1C1C1C"/>
<circle cx="75" cy="51" r="3" fill="#1C1C1C"/>
<circle cx="75" cy="75" r="3" fill="#1C1C1C"/>
<circle cx="75" cy="99" r="3" fill="#1C1C1C"/>
<circle cx="75" cy="123" r="3" fill="#1C1C1C"/>
<circle cx="75" cy="147" r="3" fill="#1C1C1C"/>
<circle cx="75" cy="171" r="3" fill="#1C1C1C"/>
<circle cx="99" cy="3" r="3" fill="#1C1C1C"/>
<circle cx="99" cy="27" r="3" fill="#1C1C1C"/>
<circle cx="99" cy="51" r="3" fill="#1C1C1C"/>
<circle cx="99" cy="75" r="3" fill="#1C1C1C"/>
<circle cx="99" cy="99" r="3" fill="#1C1C1C"/>
<circle cx="99" cy="123" r="3" fill="#1C1C1C"/>
<circle cx="99" cy="147" r="3" fill="#1C1C1C"/>
<circle cx="99" cy="171" r="3" fill="#1C1C1C"/>
<circle cx="99" cy="195" r="3" fill="#1C1C1C"/>
<circle cx="123" cy="3" r="3" fill="#1C1C1C"/>
<circle cx="123" cy="27" r="3" fill="#1C1C1C"/>
<circle cx="123" cy="51" r="3" fill="#1C1C1C"/>
<circle cx="123" cy="75" r="3" fill="#1C1C1C"/>
<circle cx="123" cy="123" r="3" fill="#1C1C1C"/>
<circle cx="123" cy="147" r="3" fill="#1C1C1C"/>
<circle cx="123" cy="171" r="3" fill="#1C1C1C"/>
<circle cx="123" cy="195" r="3" fill="#1C1C1C"/>
<circle cx="147" cy="3" r="3" fill="#1C1C1C"/>
<circle cx="147" cy="27" r="3" fill="#1C1C1C"/>
<circle cx="147" cy="51" r="3" fill="#1C1C1C"/>
<circle cx="147" cy="147" r="3" fill="#1C1C1C"/>
<circle cx="147" cy="171" r="3" fill="#1C1C1C"/>
<circle cx="147" cy="195" r="3" fill="#1C1C1C"/>
<circle cx="171" cy="3" r="3" fill="#1C1C1C"/>
<circle cx="171" cy="27" r="3" fill="#1C1C1C"/>
<circle cx="171" cy="123" r="3" fill="#1C1C1C"/>
<circle cx="171" cy="147" r="3" fill="#1C1C1C"/>
<circle cx="171" cy="171" r="3" fill="#1C1C1C"/>
<circle cx="171" cy="195" r="3" fill="#1C1C1C"/>
<circle cx="195" cy="3" r="3" fill="#1C1C1C"/>
<circle cx="195" cy="99" r="3" fill="#1C1C1C"/>
<circle cx="195" cy="123" r="3" fill="#1C1C1C"/>
<circle cx="195" cy="147" r="3" fill="#1C1C1C"/>
<circle cx="195" cy="171" r="3" fill="#1C1C1C"/>
<circle cx="195" cy="195" r="3" fill="#1C1C1C"/>
<circle cx="219" cy="75" r="3" fill="#1C1C1C"/>
<circle cx="219" cy="99" r="3" fill="#1C1C1C"/>
<circle cx="219" cy="123" r="3" fill="#1C1C1C"/>
<circle cx="219" cy="147" r="3" fill="#1C1C1C"/>
<circle cx="219" cy="171" r="3" fill="#1C1C1C"/>
<circle cx="243" cy="51" r="3" fill="#1C1C1C"/>
<circle cx="243" cy="75" r="3" fill="#1C1C1C"/>
<circle cx="243" cy="99" r="3" fill="#1C1C1C"/>
<circle cx="243" cy="123" r="3" fill="#1C1C1C"/>
<circle cx="243" cy="147" r="3" fill="#1C1C1C"/>
<circle cx="267" cy="27" r="3" fill="#1C1C1C"/>
<circle cx="267" cy="51" r="3" fill="#1C1C1C"/>
<circle cx="267" cy="75" r="3" fill="#1C1C1C"/>
<circle cx="267" cy="99" r="3" fill="#1C1C1C"/>
<circle cx="267" cy="123" r="3" fill="#1C1C1C"/>
<circle cx="291" cy="3" r="3" fill="#1C1C1C"/>
<circle cx="291" cy="27" r="3" fill="#1C1C1C"/>
<circle cx="291" cy="51" r="3" fill="#1C1C1C"/>
<circle cx="291" cy="75" r="3" fill="#1C1C1C"/>
<circle cx="291" cy="99" r="3" fill="#1C1C1C"/>
<circle cx="291" cy="195" r="3" fill="#1C1C1C"/>
<circle cx="315" cy="3" r="3" fill="#1C1C1C"/>
<circle cx="315" cy="27" r="3" fill="#1C1C1C"/>
<circle cx="315" cy="51" r="3" fill="#1C1C1C"/>
<circle cx="315" cy="75" r="3" fill="#1C1C1C"/>
<circle cx="315" cy="171" r="3" fill="#1C1C1C"/>
<circle cx="315" cy="195" r="3" fill="#1C1C1C"/>
<circle cx="339" cy="3" r="3" fill="#1C1C1C"/>
<circle cx="339" cy="27" r="3" fill="#1C1C1C"/>
<circle cx="339" cy="51" r="3" fill="#1C1C1C"/>
<circle cx="339" cy="147" r="3" fill="#1C1C1C"/>
<circle cx="339" cy="171" r="3" fill="#1C1C1C"/>
<circle cx="339" cy="195" r="3" fill="#1C1C1C"/>
<circle cx="363" cy="3" r="3" fill="#1C1C1C"/>
<circle cx="363" cy="27" r="3" fill="#1C1C1C"/>
<circle cx="363" cy="51" r="3" fill="#1C1C1C"/>
<circle cx="363" cy="75" r="3" fill="#1C1C1C"/>
<circle cx="363" cy="123" r="3" fill="#1C1C1C"/>
<circle cx="363" cy="147" r="3" fill="#1C1C1C"/>
<circle cx="363" cy="171" r="3" fill="#1C1C1C"/>
<circle cx="363" cy="195" r="3" fill="#1C1C1C"/>
<circle cx="387" cy="3" r="3" fill="#1C1C1C"/>
<circle cx="387" cy="27" r="3" fill="#1C1C1C"/>
<circle cx="387" cy="51" r="3" fill="#1C1C1C"/>
<circle cx="387" cy="75" r="3" fill="#1C1C1C"/>
<circle cx="387" cy="99" r="3" fill="#1C1C1C"/>
<circle cx="387" cy="123" r="3" fill="#1C1C1C"/>
<circle cx="387" cy="147" r="3" fill="#1C1C1C"/>
<circle cx="387" cy="171" r="3" fill="#1C1C1C"/>
<circle cx="387" cy="195" r="3" fill="#1C1C1C"/>
<circle cx="411" cy="27" r="3" fill="#1C1C1C"/>
<circle cx="411" cy="51" r="3" fill="#1C1C1C"/>
<circle cx="411" cy="75" r="3" fill="#1C1C1C"/>
<circle cx="411" cy="99" r="3" fill="#1C1C1C"/>
<circle cx="411" cy="123" r="3" fill="#1C1C1C"/>
<circle cx="411" cy="147" r="3" fill="#1C1C1C"/>
<circle cx="411" cy="171" r="3" fill="#1C1C1C"/>
<circle cx="435" cy="51" r="3" fill="#1C1C1C"/>
<circle cx="435" cy="75" r="3" fill="#1C1C1C"/>
<circle cx="435" cy="99" r="3" fill="#1C1C1C"/>
<circle cx="435" cy="123" r="3" fill="#1C1C1C"/>
<circle cx="435" cy="147" r="3" fill="#1C1C1C"/>
<circle cx="459" cy="75" r="3" fill="#1C1C1C"/>
<circle cx="459" cy="99" r="3" fill="#1C1C1C"/>
<circle cx="459" cy="123" r="3" fill="#1C1C1C"/>
<circle cx="483" cy="99" r="3" fill="#1C1C1C"/>
</svg>
