<svg width="89" height="17" viewBox="0 0 89 17" fill="none" xmlns="http://www.w3.org/2000/svg">
<path d="M83.3585 9.49932L88.0796 16.3552H84.6711L81.4955 11.3884L80.1617 12.8742V16.3552H77.4941V0.308594H80.1617V9.60545L84.5229 4.65986H87.8891L83.3585 9.49932Z" fill="black"/>
<path d="M69.3594 16.5242C68.1032 16.5242 67.1294 16.2412 66.4378 15.6751C65.7462 15.095 65.4004 14.2884 65.4004 13.2554V12.5762C65.4004 12.0951 65.471 11.6564 65.6121 11.2602C65.7674 10.8498 66.0144 10.4961 66.3531 10.1989C66.7059 9.90175 67.1646 9.66827 67.7292 9.49846C68.2938 9.32866 68.9854 9.24376 69.804 9.24376H72.4715V8.79802C72.4715 8.07634 72.3021 7.55985 71.9634 7.24854C71.6388 6.92308 71.1166 6.76035 70.3967 6.76035C69.1829 6.76035 68.082 7.14949 67.0941 7.92776L65.7815 5.975C66.3743 5.56463 67.0447 5.2038 67.7927 4.89249C68.5408 4.56703 69.4158 4.4043 70.4179 4.4043C71.0954 4.4043 71.7235 4.4892 72.3021 4.659C72.8808 4.82881 73.3748 5.07644 73.7841 5.4019C74.2075 5.71321 74.5322 6.10235 74.758 6.56932C74.9979 7.02213 75.1179 7.5457 75.1179 8.14002V16.3544H72.7256L72.6832 14.911C72.5703 15.1657 72.3868 15.3992 72.1328 15.6115C71.8928 15.8096 71.6176 15.9723 71.3071 16.0997C70.9966 16.2412 70.672 16.3473 70.3332 16.418C69.9945 16.4888 69.6699 16.5242 69.3594 16.5242ZM72.4715 11.3239H69.8675C69.1618 11.3239 68.6678 11.4583 68.3855 11.7272C68.1173 11.996 67.9833 12.3569 67.9833 12.8097V13.0644C67.9833 13.4464 68.1173 13.7436 68.3855 13.9559C68.6537 14.1681 69.0489 14.2742 69.5711 14.2742C70.6579 14.2742 71.4624 14.0125 71.9846 13.4889C72.2245 13.2483 72.3657 12.9936 72.408 12.7248C72.4503 12.4418 72.4715 12.0809 72.4715 11.6423V11.3239Z" fill="black"/>
<path d="M59.5402 4.4043C60.0765 4.4043 60.5846 4.49627 61.0645 4.68023C61.5585 4.86419 61.989 5.14012 62.356 5.50803C62.7229 5.87594 63.0122 6.33583 63.224 6.8877C63.4498 7.43957 63.5627 8.08342 63.5627 8.81924V16.3544H60.8952V9.37111C60.8952 8.84754 60.8387 8.41595 60.7258 8.07634C60.6129 7.73673 60.4576 7.47495 60.26 7.29099C60.0624 7.09288 59.8366 6.95846 59.5825 6.8877C59.3285 6.81695 59.0603 6.78157 58.778 6.78157C58.524 6.78157 58.2629 6.82403 57.9947 6.90893C57.7407 6.97968 57.5148 7.11411 57.3173 7.31222C57.1197 7.49617 56.9573 7.75088 56.8303 8.07634C56.7033 8.4018 56.6398 8.80509 56.6398 9.28621V16.3544H53.9722V9.32866C53.9722 8.83339 53.9158 8.42303 53.8029 8.09757C53.69 7.77211 53.5347 7.51032 53.3371 7.31222C53.1536 7.11411 52.9349 6.97968 52.6808 6.90893C52.4268 6.82403 52.1515 6.78157 51.8551 6.78157C51.22 6.78157 50.7048 6.97968 50.3097 7.37589C49.9145 7.77211 49.7169 8.3735 49.7169 9.18008V16.3544H47.0493V4.659H49.5687V6.1448H49.611C49.8933 5.60709 50.3026 5.18257 50.8389 4.87126C51.3894 4.55995 52.0457 4.4043 52.8078 4.4043C53.5276 4.4043 54.1698 4.56703 54.7344 4.89249C55.3131 5.21795 55.7083 5.64954 55.92 6.18726C56.3293 5.59294 56.8092 5.1472 57.3596 4.85004C57.9242 4.55288 58.651 4.4043 59.5402 4.4043Z" fill="black"/>
<path d="M38.9145 16.5242C37.6584 16.5242 36.6845 16.2412 35.9929 15.6751C35.3014 15.095 34.9556 14.2884 34.9556 13.2554V12.5762C34.9556 12.0951 35.0261 11.6564 35.1673 11.2602C35.3225 10.8498 35.5695 10.4961 35.9083 10.1989C36.2611 9.90175 36.7198 9.66827 37.2844 9.49846C37.8489 9.32866 38.5405 9.24376 39.3591 9.24376H42.0267V8.79802C42.0267 8.07634 41.8573 7.55985 41.5186 7.24854C41.194 6.92308 40.6717 6.76035 39.9519 6.76035C38.7381 6.76035 37.6372 7.14949 36.6492 7.92776L35.3366 5.975C35.9294 5.56463 36.5998 5.2038 37.3479 4.89249C38.0959 4.56703 38.971 4.4043 39.9731 4.4043C40.6506 4.4043 41.2786 4.4892 41.8573 4.659C42.436 4.82881 42.93 5.07644 43.3393 5.4019C43.7627 5.71321 44.0873 6.10235 44.3132 6.56932C44.5531 7.02213 44.6731 7.5457 44.6731 8.14002V16.3544H42.2807L42.2384 14.911C42.1255 15.1657 41.942 15.3992 41.6879 15.6115C41.448 15.8096 41.1728 15.9723 40.8623 16.0997C40.5518 16.2412 40.2271 16.3473 39.8884 16.418C39.5497 16.4888 39.2251 16.5242 38.9145 16.5242ZM42.0267 11.3239H39.4227C38.717 11.3239 38.223 11.4583 37.9407 11.7272C37.6725 11.996 37.5384 12.3569 37.5384 12.8097V13.0644C37.5384 13.4464 37.6725 13.7436 37.9407 13.9559C38.2088 14.1681 38.604 14.2742 39.1263 14.2742C40.213 14.2742 41.0175 14.0125 41.5397 13.4889C41.7797 13.2483 41.9208 12.9936 41.9632 12.7248C42.0055 12.4418 42.0267 12.0809 42.0267 11.6423V11.3239Z" fill="black"/>
<path d="M29.6842 9.49932L34.4053 16.3552H30.9968L27.8211 11.3884L26.4874 12.8742V16.3552H23.8198V0.308594H26.4874V9.60545L30.8486 4.65986H34.2148L29.6842 9.49932Z" fill="black"/>
<path d="M16.4228 14.1893C16.818 14.1893 17.185 14.1327 17.5237 14.0195C17.8624 13.9063 18.1518 13.7295 18.3917 13.4889C18.6458 13.2483 18.8434 12.93 18.9845 12.5337C19.1256 12.1375 19.1962 11.6635 19.1962 11.1116V9.81685C19.1962 8.69896 18.9422 7.90654 18.4341 7.43957C17.9401 6.97261 17.2697 6.73912 16.4228 6.73912C15.576 6.73912 14.8985 6.97261 14.3904 7.43957C13.8964 7.90654 13.6494 8.69896 13.6494 9.81685V11.1116C13.6494 11.6635 13.72 12.1375 13.8611 12.5337C14.0023 12.93 14.1928 13.2483 14.4327 13.4889C14.6868 13.7295 14.9832 13.9063 15.3219 14.0195C15.6607 14.1327 16.0276 14.1893 16.4228 14.1893ZM16.4228 16.5242C15.5901 16.5242 14.835 16.4039 14.1575 16.1633C13.4942 15.9228 12.9225 15.5761 12.4427 15.1233C11.9769 14.6705 11.6099 14.1115 11.3418 13.4464C11.0877 12.7672 10.9607 12.0031 10.9607 11.1541V9.7744C10.9607 8.91122 11.0877 8.14709 11.3418 7.48202C11.6099 6.81695 11.9769 6.25801 12.4427 5.80519C12.9225 5.35238 13.4942 5.00569 14.1575 4.76513C14.835 4.52458 15.5901 4.4043 16.4228 4.4043C17.2414 4.4043 17.9895 4.52458 18.6669 4.76513C19.3444 5.00569 19.916 5.35238 20.3818 5.80519C20.8617 6.25801 21.2286 6.81695 21.4827 7.48202C21.7508 8.14709 21.8849 8.91122 21.8849 9.7744V11.1541C21.8849 12.0031 21.7508 12.7672 21.4827 13.4464C21.2286 14.1115 20.8617 14.6705 20.3818 15.1233C19.916 15.5761 19.3444 15.9228 18.6669 16.1633C17.9895 16.4039 17.2414 16.5242 16.4228 16.5242Z" fill="black"/>
<path d="M11.6652 1.05078V3.34316H7.19814V16.3545H4.48825V3.34316H0V1.05078H11.6652Z" fill="black"/>
</svg>
