<svg width="102" height="21" viewBox="0 0 102 21" fill="none" xmlns="http://www.w3.org/2000/svg">
<path d="M93.6789 0.769531H97.0797L94.7643 14.1185L93.989 16.6888H90.9189L93.6789 0.769531ZM101.948 10.8953L101.928 11.1233C101.845 11.8211 101.693 12.519 101.473 13.2168C101.252 13.9078 100.946 14.5365 100.553 15.1031C100.167 15.6628 99.6778 16.1084 99.0851 16.4401C98.4993 16.7717 97.7999 16.9272 96.9867 16.9064C96.2838 16.8857 95.7084 16.6888 95.2604 16.3157C94.8125 15.9426 94.468 15.4693 94.2268 14.8958C93.9856 14.3154 93.8202 13.7039 93.7306 13.0614C93.6479 12.4119 93.6134 11.8039 93.6272 11.2373L93.6479 10.9678C93.7581 10.3667 93.9339 9.73103 94.1751 9.06082C94.4232 8.39061 94.7436 7.7653 95.1364 7.18491C95.5292 6.59762 96.0013 6.12432 96.5526 5.76503C97.1039 5.40574 97.7379 5.23646 98.4546 5.25719C99.2333 5.27101 99.8673 5.45065 100.357 5.79612C100.846 6.13469 101.218 6.58034 101.473 7.13309C101.728 7.68585 101.886 8.29042 101.948 8.94681C102.017 9.60321 102.017 10.2527 101.948 10.8953ZM98.5372 11.1129L98.5476 10.8849C98.5751 10.6293 98.5958 10.3356 98.6096 10.004C98.6303 9.6723 98.6165 9.35447 98.5683 9.05045C98.52 8.73953 98.4063 8.48043 98.2271 8.27315C98.048 8.06586 97.7723 7.95531 97.4002 7.94149C96.9936 7.92077 96.649 7.98641 96.3665 8.13841C96.084 8.29042 95.8531 8.4977 95.6739 8.76026C95.4948 9.02282 95.3569 9.31992 95.2604 9.65157C95.164 9.98322 95.0951 10.3218 95.0537 10.6673L94.9607 11.4964C94.9193 11.8971 94.9055 12.3048 94.9193 12.7193C94.94 13.1339 95.0537 13.4828 95.2604 13.7661C95.4672 14.0494 95.8324 14.198 96.3562 14.2118C96.7834 14.2256 97.1314 14.1358 97.4002 13.9423C97.6689 13.7488 97.8791 13.4967 98.0307 13.1857C98.1823 12.8679 98.2926 12.5259 98.3615 12.1597C98.4373 11.7935 98.4959 11.4446 98.5372 11.1129Z" fill="black"/>
<path d="M86.1333 13.7866L87.5701 5.47461H90.9813L89.038 16.6886H85.8645L86.1333 13.7866ZM86.7742 11.6723L87.6528 11.6516C87.5839 12.2873 87.4461 12.9195 87.2394 13.5482C87.0326 14.177 86.7466 14.747 86.3814 15.2583C86.0162 15.7696 85.5613 16.1773 85.0169 16.4813C84.4794 16.7784 83.842 16.92 83.1046 16.9062C82.4913 16.8924 81.971 16.7749 81.5437 16.5538C81.1233 16.3327 80.7857 16.0322 80.5307 15.6522C80.2757 15.2652 80.1034 14.823 80.0139 14.3256C79.9243 13.8281 79.907 13.2961 79.9622 12.7295L81.1716 5.47461H84.5724L83.3423 12.7709C83.3217 12.9713 83.3217 13.1579 83.3423 13.3306C83.3699 13.5033 83.4216 13.6553 83.4974 13.7866C83.5801 13.911 83.6938 14.0112 83.8385 14.0872C83.9832 14.1632 84.1693 14.2046 84.3967 14.2116C84.9135 14.2323 85.3339 14.1252 85.6578 13.8903C85.9817 13.6484 86.2298 13.3306 86.4021 12.9368C86.5812 12.5429 86.7053 12.1215 86.7742 11.6723Z" fill="black"/>
<path d="M76.4575 7.58811L75.9717 10.3864H68.4568L68.9426 7.58811H76.4575ZM71.1754 1.59766L68.5601 16.6878H65.0249L67.6298 1.59766H71.1754ZM79.8584 1.59766L77.2431 16.6878H73.7182L76.3231 1.59766H79.8584Z" fill="black"/>
<path d="M53.0447 7.81746L50.7602 21.0006H47.3594L50.047 5.47517H53.1997L53.0447 7.81746ZM59.1435 10.8852L59.1124 11.1029C59.0366 11.78 58.8816 12.464 58.6473 13.155C58.4199 13.8459 58.1063 14.4781 57.7066 15.0516C57.3138 15.6251 56.8245 16.0846 56.2388 16.43C55.653 16.7686 54.9639 16.9275 54.1714 16.9068C53.4754 16.8861 52.9068 16.6926 52.4658 16.3264C52.0248 15.9533 51.6802 15.4834 51.4321 14.9169C51.1909 14.3434 51.0221 13.7388 50.9256 13.1032C50.836 12.4606 50.7981 11.8629 50.8119 11.3102L50.8429 11.0096C50.9463 10.4016 51.1186 9.759 51.3598 9.08188C51.601 8.40476 51.918 7.776 52.3108 7.19561C52.7036 6.60831 53.1756 6.13502 53.7269 5.77573C54.2782 5.40953 54.9191 5.2368 55.6496 5.25753C56.4145 5.27825 57.0416 5.46135 57.5309 5.80682C58.0202 6.14538 58.3923 6.59104 58.6473 7.14379C58.9023 7.68964 59.0642 8.29075 59.1331 8.94715C59.202 9.60354 59.2055 10.2496 59.1435 10.8852ZM55.7219 11.0925L55.7426 10.8749C55.7633 10.6261 55.7805 10.3394 55.7943 10.0147C55.8081 9.68991 55.7874 9.37208 55.7323 9.06115C55.684 8.75023 55.5703 8.49113 55.3912 8.28385C55.2189 8.06965 54.9536 7.95565 54.5952 7.94183C54.1748 7.9211 53.8234 7.98674 53.5408 8.13875C53.2583 8.29075 53.0274 8.50149 52.8483 8.77096C52.676 9.04043 52.5416 9.34444 52.4451 9.683C52.3487 10.0147 52.2797 10.3567 52.2384 10.709L52.1454 11.5589C52.0971 11.9527 52.0868 12.3535 52.1144 12.7611C52.1419 13.1619 52.2591 13.5004 52.4658 13.7768C52.6794 14.0532 53.0378 14.1983 53.5408 14.2121C53.9405 14.219 54.2713 14.1223 54.5332 13.9219C54.8019 13.7215 55.0156 13.459 55.1741 13.1342C55.3395 12.8095 55.4635 12.4675 55.5462 12.1082C55.6289 11.742 55.6875 11.4034 55.7219 11.0925Z" fill="black"/>
<path d="M43.3179 13.7866L44.7547 5.47461H48.1659L46.2225 16.6886H43.0491L43.3179 13.7866ZM43.9588 11.6723L44.8374 11.6516C44.7685 12.2873 44.6307 12.9195 44.4239 13.5482C44.2172 14.177 43.9312 14.747 43.566 15.2583C43.2007 15.7696 42.7459 16.1773 42.2015 16.4813C41.664 16.7784 41.0265 16.92 40.2892 16.9062C39.6758 16.8924 39.1555 16.7749 38.7283 16.5538C38.3079 16.3327 37.9702 16.0322 37.7153 15.6522C37.4603 15.2652 37.288 14.823 37.1984 14.3256C37.1088 13.8281 37.0916 13.2961 37.1467 12.7295L38.3562 5.47461H41.757L40.5269 12.7709C40.5062 12.9713 40.5062 13.1579 40.5269 13.3306C40.5545 13.5033 40.6062 13.6553 40.682 13.7866C40.7647 13.911 40.8784 14.0112 41.0231 14.0872C41.1678 14.1632 41.3539 14.2046 41.5813 14.2116C42.0981 14.2323 42.5185 14.1252 42.8424 13.8903C43.1663 13.6484 43.4144 13.3306 43.5866 12.9368C43.7658 12.5429 43.8898 12.1215 43.9588 11.6723Z" fill="black"/>
<path d="M37.1777 0.769531L34.4279 16.6888H31.0166L33.7664 0.769531H37.1777Z" fill="black"/>
<path d="M31.5337 0.769531L28.7839 16.6888H25.3726L28.1223 0.769531H31.5337Z" fill="black"/>
<path d="M14.2091 11.2581L14.2297 11.0405C14.3193 10.2321 14.5157 9.47548 14.8189 8.77072C15.1222 8.06596 15.5253 7.44757 16.0284 6.91555C16.5383 6.38352 17.1378 5.97241 17.827 5.68222C18.5161 5.38511 19.2879 5.24692 20.1424 5.26765C20.9625 5.28147 21.6723 5.44039 22.2718 5.7444C22.8714 6.04842 23.3641 6.46298 23.75 6.98809C24.1359 7.5063 24.4081 8.10742 24.5666 8.79145C24.732 9.46857 24.7803 10.1906 24.7114 10.9575L24.6907 11.1856C24.6011 11.987 24.4013 12.7367 24.0911 13.4346C23.781 14.1324 23.371 14.7439 22.8611 15.269C22.358 15.7941 21.7619 16.2018 21.0728 16.492C20.3836 16.7822 19.6153 16.9169 18.7676 16.8962C17.9614 16.8824 17.255 16.7269 16.6486 16.4298C16.049 16.1258 15.5563 15.7181 15.1704 15.2068C14.7845 14.6886 14.5088 14.0944 14.3434 13.4242C14.1849 12.7471 14.1401 12.0251 14.2091 11.2581ZM17.6306 11.0405L17.6099 11.2581C17.5892 11.5414 17.5754 11.8523 17.5686 12.1909C17.5686 12.5225 17.6065 12.8438 17.6823 13.1547C17.7581 13.4588 17.8959 13.7109 18.0957 13.9113C18.3025 14.1048 18.5988 14.2084 18.9847 14.2222C19.3982 14.2361 19.7428 14.1497 20.0184 13.9631C20.3009 13.7766 20.5284 13.5278 20.7006 13.2169C20.8729 12.906 21.0039 12.5709 21.0934 12.2116C21.1899 11.8523 21.2554 11.5068 21.2898 11.1752L21.3105 10.9575C21.3312 10.6812 21.3415 10.3737 21.3415 10.0351C21.3484 9.68967 21.314 9.36148 21.2382 9.05055C21.1624 8.73963 21.0211 8.48398 20.8143 8.28361C20.6076 8.07633 20.3113 7.96578 19.9254 7.95196C19.5119 7.93814 19.1639 8.02796 18.8813 8.22142C18.6057 8.41489 18.3817 8.67053 18.2094 8.98837C18.0372 9.29929 17.9062 9.63785 17.8166 10.004C17.7271 10.3633 17.665 10.7088 17.6306 11.0405Z" fill="black"/>
<path d="M3.02433 1.59766L8.59593 1.60802C9.51247 1.62184 10.3567 1.78766 11.1285 2.1055C11.9003 2.42333 12.5067 2.91044 12.9478 3.56684C13.3888 4.21632 13.5749 5.0489 13.506 6.06459C13.4439 6.90063 13.2579 7.60538 12.9478 8.17887C12.6377 8.74544 12.2173 9.2291 11.6867 9.62984C11.156 10.0306 10.5324 10.3864 9.81569 10.6973L8.53391 11.3606H3.53084L4.00634 8.55197L7.40719 8.5727C7.86201 8.56579 8.26515 8.47597 8.6166 8.30324C8.97495 8.1305 9.26783 7.88522 9.49524 7.56738C9.72265 7.24955 9.86737 6.86262 9.92939 6.4066C9.98452 6.03349 9.97074 5.70184 9.88804 5.41165C9.80535 5.11454 9.64685 4.87962 9.41255 4.70689C9.17824 4.53415 8.86813 4.43742 8.48222 4.41669L6.08406 4.40633L3.95466 16.6878H0.419434L3.02433 1.59766ZM8.49256 16.6878L6.41484 10.0133L10.0017 9.99259L12.2655 16.5116V16.6878H8.49256Z" fill="black"/>
</svg>
