<svg width="70" height="70" viewBox="0 0 70 70" fill="none" xmlns="http://www.w3.org/2000/svg">
<rect x="1" y="1" width="68" height="68" rx="34" stroke="#1C1C1C" stroke-width="2"/>
<path d="M25.6243 22.0265L25.7398 28.2806C25.7563 29.1387 25.2117 30.2773 24.5186 30.7889L20.426 33.8912C17.8022 35.8714 18.2312 38.2971 21.3667 39.2872L26.6969 40.9539C27.588 41.2344 28.5287 42.2081 28.7597 43.1156L30.0304 47.9671C31.0371 51.7955 33.5454 52.175 35.6247 48.8087L38.5292 44.1057C39.0572 43.2476 40.3114 42.6041 41.3015 42.6536L46.8133 42.9341C50.7573 43.1321 51.8795 40.8549 49.3051 37.8516L46.0377 34.0562C45.4271 33.3466 45.1466 32.0265 45.4271 31.1354L47.0938 25.8054C48.0674 22.67 46.3182 20.9374 43.1993 21.9605L38.331 23.5612C37.5059 23.8252 36.2683 23.6436 35.5752 23.1321L30.4924 19.4687C27.753 17.4885 25.5583 18.6437 25.6243 22.0265Z" stroke="#1C1C1C" stroke-width="2.5" stroke-linecap="round" stroke-linejoin="round"/>
<path d="M18.0001 51.5L23.0002 46.5" stroke="#1C1C1C" stroke-width="2.5" stroke-linecap="round" stroke-linejoin="round"/>
</svg>
